<svg xmlns="http://www.w3.org/2000/svg" width="150px" height="32px" viewBox="0 0 150 32" version="1.1"><title>polygon.io</title><g id="Symbols" stroke="none" stroke-width="1" fill="none" fill-rule="evenodd"><g id="Nav/Nav:desktop-loggedin" transform="translate(-144.000000, -24.000000)"><g id="Logo" transform="translate(144.000000, 24.000000)"><rect id="button" stroke="#5F5CFF" fill="#5F5CFF" x="0.5" y="0.5" width="35" height="31" rx="4"></rect><path d="M17.9821362,6 L24,12.1195009 L22.9236698,13.5060353 L17.9524621,27 L14.9907916,17.5798557 L12,12.0454987 L17.9821362,6 Z M21.437,15.304 L18.3670383,19.1065035 L18.367,23.637 L21.437,15.304 Z M18.203,7.335 L15.763,17.462 L17.595,23.287 L17.5955435,18.8249858 L22.963,12.176 L18.203,7.335 Z M17.297,7.799 L12.9564162,12.1857947 L15.228,16.389 L17.297,7.799 Z" id="Combined-Shape" fill="#FFFFFF"></path><g id="polygon.io" transform="translate(49.200000, 6.300000)" fill-rule="nonzero"><path d="M2.62,19.02 L2.62,14.92 L2.46,13.48 L2.62,13.48 C2.88666667,13.92 3.29,14.2866667 3.83,14.58 C4.37,14.8733333 4.98666667,15.02 5.68,15.02 C6.6,15.02 7.43666667,14.79 8.19,14.33 C8.94333333,13.87 9.53333333,13.23 9.96,12.41 C10.3866667,11.59 10.6,10.6533333 10.6,9.6 C10.6,8.56 10.3866667,7.62666667 9.96,6.8 C9.53333333,5.97333333 8.94333333,5.33 8.19,4.87 C7.43666667,4.41 6.6,4.18 5.68,4.18 C4.98666667,4.18 4.37333333,4.33 3.84,4.63 C3.30666667,4.93 2.9,5.3 2.62,5.74 L2.62,5.74 L2.46,5.74 L2.46,4.5 L0,4.5 L0,19.02 L2.62,19.02 Z M5.22,12.6 C4.74,12.6 4.28666667,12.4733333 3.86,12.22 C3.43333333,11.9666667 3.09333333,11.6133333 2.84,11.16 C2.58666667,10.7066667 2.46,10.1866667 2.46,9.6 C2.46,9.01333333 2.58666667,8.49333333 2.84,8.04 C3.09333333,7.58666667 3.43333333,7.23666667 3.86,6.99 C4.28666667,6.74333333 4.74,6.62 5.22,6.62 C5.71333333,6.62 6.17333333,6.74333333 6.6,6.99 C7.02666667,7.23666667 7.36666667,7.58666667 7.62,8.04 C7.87333333,8.49333333 8,9.01333333 8,9.6 C8,10.1866667 7.87333333,10.7066667 7.62,11.16 C7.36666667,11.6133333 7.02666667,11.9666667 6.6,12.22 C6.17333333,12.4733333 5.71333333,12.6 5.22,12.6 Z M17.5,15.02 C18.54,15.02 19.4733333,14.7833333 20.3,14.31 C21.1266667,13.8366667 21.77,13.19 22.23,12.37 C22.69,11.55 22.92,10.6266667 22.92,9.6 C22.92,8.58666667 22.69,7.66666667 22.23,6.84 C21.77,6.01333333 21.1266667,5.36333333 20.3,4.89 C19.4733333,4.41666667 18.54,4.18 17.5,4.18 C16.4466667,4.18 15.5066667,4.41666667 14.68,4.89 C13.8533333,5.36333333 13.21,6.01333333 12.75,6.84 C12.29,7.66666667 12.06,8.58666667 12.06,9.6 C12.06,10.6266667 12.29,11.55 12.75,12.37 C13.21,13.19 13.8533333,13.8366667 14.68,14.31 C15.5066667,14.7833333 16.4466667,15.02 17.5,15.02 Z M17.5,12.6 C16.9933333,12.6 16.5266667,12.48 16.1,12.24 C15.6733333,12 15.33,11.65 15.07,11.19 C14.81,10.73 14.68,10.2 14.68,9.6 C14.68,9 14.81,8.47333333 15.07,8.02 C15.33,7.56666667 15.6733333,7.22 16.1,6.98 C16.5266667,6.74 16.9933333,6.62 17.5,6.62 C18.0066667,6.62 18.4733333,6.74 18.9,6.98 C19.3266667,7.22 19.6666667,7.56666667 19.92,8.02 C20.1733333,8.47333333 20.3,9 20.3,9.6 C20.3,10.2133333 20.1733333,10.7466667 19.92,11.2 C19.6666667,11.6533333 19.3266667,12 18.9,12.24 C18.4733333,12.48 18.0066667,12.6 17.5,12.6 Z M27.54,14.7 L27.54,0.38 L24.92,0.38 L24.92,14.7 L27.54,14.7 Z M33.94,19.02 L40.24,4.5 L37.32,4.5 L34.78,10.84 L34.62,10.84 L31.98,4.5 L29,4.5 L33.3,14.22 L31.12,19.02 L33.94,19.02 Z M46.38,19.34 C47.4333333,19.34 48.3533333,19.1233333 49.14,18.69 C49.9266667,18.2566667 50.5333333,17.64 50.96,16.84 C51.3866667,16.04 51.6,15.0933333 51.6,14 L51.6,14 L51.6,4.5 L49.08,4.5 L49.08,5.58 L48.92,5.58 C48.6,5.12666667 48.18,4.78 47.66,4.54 C47.14,4.3 46.5466667,4.18 45.88,4.18 C45.04,4.18 44.2566667,4.39666667 43.53,4.83 C42.8033333,5.26333333 42.22,5.87666667 41.78,6.67 C41.34,7.46333333 41.12,8.38666667 41.12,9.44 C41.12,10.4933333 41.34,11.4166667 41.78,12.21 C42.22,13.0033333 42.8033333,13.6166667 43.53,14.05 C44.2566667,14.4833333 45.04,14.7 45.88,14.7 C46.5466667,14.7 47.14,14.58 47.66,14.34 C48.18,14.1 48.6,13.7533333 48.92,13.3 L48.92,13.3 L49.08,13.3 L49.08,14.1 C49.08,15.0333333 48.8366667,15.7533333 48.35,16.26 C47.8633333,16.7666667 47.2066667,17.02 46.38,17.02 C45.82,17.02 45.32,16.8733333 44.88,16.58 C44.44,16.2866667 44.1133333,15.8866667 43.9,15.38 L43.9,15.38 L41.44,16.38 C41.7333333,17.1933333 42.3066667,17.89 43.16,18.47 C44.0133333,19.05 45.0866667,19.34 46.38,19.34 Z M46.42,12.32 C45.6733333,12.32 45.04,12.0666667 44.52,11.56 C44,11.0533333 43.74,10.3466667 43.74,9.44 C43.74,8.53333333 44,7.82666667 44.52,7.32 C45.04,6.81333333 45.6733333,6.56 46.42,6.56 C47.1666667,6.56 47.7966667,6.81 48.31,7.31 C48.8233333,7.81 49.08,8.52 49.08,9.44 C49.08,10.3333333 48.82,11.0366667 48.3,11.55 C47.78,12.0633333 47.1533333,12.32 46.42,12.32 Z M59.04,15.02 C60.08,15.02 61.0133333,14.7833333 61.84,14.31 C62.6666667,13.8366667 63.31,13.19 63.77,12.37 C64.23,11.55 64.46,10.6266667 64.46,9.6 C64.46,8.58666667 64.23,7.66666667 63.77,6.84 C63.31,6.01333333 62.6666667,5.36333333 61.84,4.89 C61.0133333,4.41666667 60.08,4.18 59.04,4.18 C57.9866667,4.18 57.0466667,4.41666667 56.22,4.89 C55.3933333,5.36333333 54.75,6.01333333 54.29,6.84 C53.83,7.66666667 53.6,8.58666667 53.6,9.6 C53.6,10.6266667 53.83,11.55 54.29,12.37 C54.75,13.19 55.3933333,13.8366667 56.22,14.31 C57.0466667,14.7833333 57.9866667,15.02 59.04,15.02 Z M59.04,12.6 C58.5333333,12.6 58.0666667,12.48 57.64,12.24 C57.2133333,12 56.87,11.65 56.61,11.19 C56.35,10.73 56.22,10.2 56.22,9.6 C56.22,9 56.35,8.47333333 56.61,8.02 C56.87,7.56666667 57.2133333,7.22 57.64,6.98 C58.0666667,6.74 58.5333333,6.62 59.04,6.62 C59.5466667,6.62 60.0133333,6.74 60.44,6.98 C60.8666667,7.22 61.2066667,7.56666667 61.46,8.02 C61.7133333,8.47333333 61.84,9 61.84,9.6 C61.84,10.2133333 61.7133333,10.7466667 61.46,11.2 C61.2066667,11.6533333 60.8666667,12 60.44,12.24 C60.0133333,12.48 59.5466667,12.6 59.04,12.6 Z M69.08,14.7 L69.08,9.5 C69.08,8.67333333 69.2966667,7.98666667 69.73,7.44 C70.1633333,6.89333333 70.7333333,6.62 71.44,6.62 C72.04,6.62 72.5066667,6.8 72.84,7.16 C73.1733333,7.52 73.34,8.02666667 73.34,8.68 L73.34,8.68 L73.34,14.7 L75.96,14.7 L75.96,8.36 C75.96,7.06666667 75.64,6.04666667 75,5.3 C74.36,4.55333333 73.4266667,4.18 72.2,4.18 C71.5466667,4.18 70.94,4.32333333 70.38,4.61 C69.82,4.89666667 69.3866667,5.28666667 69.08,5.78 L69.08,5.78 L68.92,5.78 L68.92,4.5 L66.46,4.5 L66.46,14.7 L69.08,14.7 Z" id="polygon" fill="#1A1B23"></path><path d="M80.02,14.82 C80.5,14.82 80.91,14.65 81.25,14.31 C81.59,13.97 81.76,13.56 81.76,13.08 C81.76,12.6 81.59,12.1933333 81.25,11.86 C80.91,11.5266667 80.5,11.36 80.02,11.36 C79.54,11.36 79.13,11.5266667 78.79,11.86 C78.45,12.1933333 78.28,12.6 78.28,13.08 C78.28,13.56 78.45,13.97 78.79,14.31 C79.13,14.65 79.54,14.82 80.02,14.82 Z M85.64,3.38 C86.1066667,3.38 86.5033333,3.21333333 86.83,2.88 C87.1566667,2.54666667 87.32,2.14666667 87.32,1.68 C87.32,1.21333333 87.1566667,0.816666667 86.83,0.49 C86.5033333,0.163333333 86.1066667,0 85.64,0 C85.1733333,0 84.7733333,0.163333333 84.44,0.49 C84.1066667,0.816666667 83.94,1.21333333 83.94,1.68 C83.94,2.14666667 84.1066667,2.54666667 84.44,2.88 C84.7733333,3.21333333 85.1733333,3.38 85.64,3.38 Z M86.94,14.7 L86.94,4.5 L84.32,4.5 L84.32,14.7 L86.94,14.7 Z M94.56,15.02 C95.6,15.02 96.5333333,14.7833333 97.36,14.31 C98.1866667,13.8366667 98.83,13.19 99.29,12.37 C99.75,11.55 99.98,10.6266667 99.98,9.6 C99.98,8.58666667 99.75,7.66666667 99.29,6.84 C98.83,6.01333333 98.1866667,5.36333333 97.36,4.89 C96.5333333,4.41666667 95.6,4.18 94.56,4.18 C93.5066667,4.18 92.5666667,4.41666667 91.74,4.89 C90.9133333,5.36333333 90.27,6.01333333 89.81,6.84 C89.35,7.66666667 89.12,8.58666667 89.12,9.6 C89.12,10.6266667 89.35,11.55 89.81,12.37 C90.27,13.19 90.9133333,13.8366667 91.74,14.31 C92.5666667,14.7833333 93.5066667,15.02 94.56,15.02 Z M94.56,12.6 C94.0533333,12.6 93.5866667,12.48 93.16,12.24 C92.7333333,12 92.39,11.65 92.13,11.19 C91.87,10.73 91.74,10.2 91.74,9.6 C91.74,9 91.87,8.47333333 92.13,8.02 C92.39,7.56666667 92.7333333,7.22 93.16,6.98 C93.5866667,6.74 94.0533333,6.62 94.56,6.62 C95.0666667,6.62 95.5333333,6.74 95.96,6.98 C96.3866667,7.22 96.7266667,7.56666667 96.98,8.02 C97.2333333,8.47333333 97.36,9 97.36,9.6 C97.36,10.2133333 97.2333333,10.7466667 96.98,11.2 C96.7266667,11.6533333 96.3866667,12 95.96,12.24 C95.5333333,12.48 95.0666667,12.6 94.56,12.6 Z" id=".io" fill="#6B6B6B"></path></g></g></g></g></svg>